<?xml version="1.0" encoding="utf-8"?>
<!-- Generator: Adobe Illustrator 15.0.0, SVG Export Plug-In . SVG Version: 6.00 Build 0)  -->
<!DOCTYPE svg PUBLIC "-//W3C//DTD SVG 1.1//EN" "http://www.w3.org/Graphics/SVG/1.1/DTD/svg11.dtd">
<svg version="1.1" id="Layer_1" xmlns="http://www.w3.org/2000/svg" xmlns:xlink="http://www.w3.org/1999/xlink" x="0px" y="0px"
	 width="26px" height="26px" viewBox="0 0 26 26" enable-background="new 0 0 26 26" xml:space="preserve">
<g>
	<path d="M9.993,10.265c0.037,0.223,0.123,0.364,0.208,0.453c0.202,1.346,1.327,2.595,2.356,2.595c1.199,0,2.291-1.352,2.501-2.592
		c0.087-0.088,0.174-0.23,0.212-0.456c0.068-0.252,0.156-0.69,0.002-0.896c-0.008-0.01-0.017-0.021-0.025-0.029
		c0.145-0.529,0.328-1.623-0.327-2.368c-0.058-0.074-0.426-0.513-1.211-0.745l-0.375-0.129c-0.618-0.191-1.006-0.234-1.023-0.236
		c-0.028-0.002-0.057,0-0.084,0.007c-0.021,0.006-0.095,0.026-0.152,0.018c-0.148-0.021-0.37,0.055-0.409,0.07
		c-0.051,0.021-1.248,0.5-1.611,1.615c-0.034,0.09-0.179,0.564,0.014,1.726c-0.029,0.02-0.055,0.044-0.077,0.073
		C9.836,9.575,9.924,10.013,9.993,10.265z"/>
	<path d="M14.781,18.749c-0.221-0.124-0.461-0.243-0.717-0.356c-0.124-0.055-0.25-0.107-0.375-0.156
		c-0.098-0.037-0.214-0.085-0.295-0.106l-1.186-0.32l2.219-4.518l0.951,0.6c0.201,0.126,0.349,0.233,0.511,0.352l0.034,0.025
		c0.161,0.119,0.319,0.241,0.474,0.367c0.337,0.272,0.635,0.538,0.912,0.813c0.021,0.021,0.041,0.04,0.062,0.061
		c0.093-0.103,0.184-0.195,0.275-0.294c-0.116-0.345-0.257-0.664-0.429-0.92c0,0-0.244-0.333-0.823-0.555
		c0,0-0.049-0.015-0.124-0.04c-0.515-0.241-1.004-0.396-1.004-0.396c-0.105-0.038-0.197-0.075-0.28-0.111
		c-0.35-0.173-0.641-0.368-0.701-0.552c0,0,0.202,1.955-1.507,2.001l-0.238-0.011c-1.549-0.138-1.652-1.994-1.652-1.994
		c-0.162,0.509-2.11,1.101-2.11,1.101c-0.579,0.222-0.824,0.556-0.824,0.556c-0.856,1.27-0.957,4.096-0.957,4.096
		c0.011,0.646,0.29,0.713,0.29,0.713c1.969,0.879,5.058,1.034,5.058,1.034c0.167,0.004,0.322-0.005,0.477-0.014l0.004,0.016
		c0,0,1.508-0.077,3.089-0.423l-0.193-0.253C15.565,19.258,15.214,18.991,14.781,18.749z"/>
	<path d="M14.219,12.726c0.021-0.027,0.044-0.054,0.066-0.084c-0.005-0.018-0.006-0.027-0.006-0.027
		C14.26,12.654,14.238,12.687,14.219,12.726z"/>
	<path d="M10.897,12.636l-0.005-0.021l-0.004,0.022c0.001-0.004,0.005-0.008,0.006-0.012C10.895,12.626,10.896,12.63,10.897,12.636z
		"/>
	<path d="M20.879,13.543c-0.561,0.396-1.084,0.844-1.582,1.315c-0.499,0.474-0.972,0.973-1.427,1.488
		c-0.169,0.192-0.333,0.386-0.496,0.581c-0.002-0.003-0.004-0.006-0.005-0.009c-0.24-0.32-0.5-0.605-0.77-0.872
		c-0.27-0.266-0.55-0.512-0.838-0.746c-0.145-0.116-0.291-0.23-0.44-0.342c-0.155-0.112-0.291-0.213-0.481-0.333l-1.182,2.405
		c0.108,0.029,0.265,0.09,0.398,0.142c0.141,0.054,0.279,0.112,0.417,0.173c0.276,0.122,0.545,0.255,0.802,0.398
		c0.508,0.284,0.981,0.63,1.251,0.983l0.909,1.192l0.523-1.134c0.263-0.568,0.578-1.162,0.901-1.728
		c0.326-0.57,0.674-1.129,1.051-1.668s0.781-1.06,1.233-1.54c0.452-0.477,0.951-0.921,1.546-1.236
		C22.043,12.804,21.439,13.151,20.879,13.543z"/>
</g>
</svg>
